<?xml version="1.0" encoding="UTF-8" standalone="no"?>
<!DOCTYPE svg PUBLIC "-//W3C//DTD SVG 1.1//EN"
 "http://www.w3.org/Graphics/SVG/1.1/DTD/svg11.dtd">
<!-- Generated by graphviz version 2.43.0 (0)
 -->
<!-- Title: G Pages: 1 -->
<svg width="1220pt" height="846pt"
 viewBox="0.00 0.00 1220.20 845.73" xmlns="http://www.w3.org/2000/svg" xmlns:xlink="http://www.w3.org/1999/xlink">
<g id="graph0" class="graph" transform="scale(1 1) rotate(0) translate(21.6 824.13)">
<title>G</title>
<polygon fill="#111111" stroke="transparent" points="-21.6,21.6 -21.6,-824.13 1198.6,-824.13 1198.6,21.6 -21.6,21.6"/>
<!-- arena.ts -->
<g id="node1" class="node">
<title>arena.ts</title>
<path fill="none" stroke="#ff6c60" d="M486.83,-409.03C486.83,-409.03 437.17,-409.03 437.17,-409.03 433.33,-409.03 429.5,-405.19 429.5,-401.36 429.5,-401.36 429.5,-393.69 429.5,-393.69 429.5,-389.86 433.33,-386.03 437.17,-386.03 437.17,-386.03 486.83,-386.03 486.83,-386.03 490.67,-386.03 494.5,-389.86 494.5,-393.69 494.5,-393.69 494.5,-401.36 494.5,-401.36 494.5,-405.19 490.67,-409.03 486.83,-409.03"/>
<text text-anchor="middle" x="462" y="-393.83" font-family="Arial" font-size="14.00" fill="#ff6c60">arena.ts</text>
</g>
<!-- arena_scaling.ts -->
<g id="node2" class="node">
<title>arena_scaling.ts</title>
<path fill="none" stroke="#ff6c60" d="M667.33,-524.03C667.33,-524.03 567.67,-524.03 567.67,-524.03 563.83,-524.03 560,-520.19 560,-516.36 560,-516.36 560,-508.69 560,-508.69 560,-504.86 563.83,-501.03 567.67,-501.03 567.67,-501.03 667.33,-501.03 667.33,-501.03 671.17,-501.03 675,-504.86 675,-508.69 675,-508.69 675,-516.36 675,-516.36 675,-520.19 671.17,-524.03 667.33,-524.03"/>
<text text-anchor="middle" x="617.5" y="-508.83" font-family="Arial" font-size="14.00" fill="#ff6c60">arena_scaling.ts</text>
</g>
<!-- arena.ts&#45;&gt;arena_scaling.ts -->
<g id="edge1" class="edge">
<title>arena.ts&#45;&gt;arena_scaling.ts</title>
<path fill="none" stroke="#757575" d="M478.56,-409.19C505.46,-429.33 560.79,-470.79 592.59,-494.62"/>
<polygon fill="#757575" stroke="#757575" points="590.79,-497.64 600.9,-500.84 594.99,-492.04 590.79,-497.64"/>
</g>
<!-- game.ts -->
<g id="node3" class="node">
<title>game.ts</title>
<path fill="none" stroke="#c6c5fe" d="M1019.33,-198.03C1019.33,-198.03 969.67,-198.03 969.67,-198.03 965.83,-198.03 962,-194.19 962,-190.36 962,-190.36 962,-182.69 962,-182.69 962,-178.86 965.83,-175.03 969.67,-175.03 969.67,-175.03 1019.33,-175.03 1019.33,-175.03 1023.17,-175.03 1027,-178.86 1027,-182.69 1027,-182.69 1027,-190.36 1027,-190.36 1027,-194.19 1023.17,-198.03 1019.33,-198.03"/>
<text text-anchor="middle" x="994.5" y="-182.83" font-family="Arial" font-size="14.00" fill="#c6c5fe">game.ts</text>
</g>
<!-- arena.ts&#45;&gt;game.ts -->
<g id="edge2" class="edge">
<title>arena.ts&#45;&gt;game.ts</title>
<path fill="none" stroke="#757575" d="M478.82,-385.98C497.51,-372.74 529.87,-350.98 560,-336.53 697.96,-270.36 873,-219.02 951.77,-197.52"/>
<polygon fill="#757575" stroke="#757575" points="953.05,-200.8 961.78,-194.81 951.22,-194.05 953.05,-200.8"/>
</g>
<!-- minimap.ts -->
<g id="node4" class="node">
<title>minimap.ts</title>
<path fill="none" stroke="#c6c5fe" d="M917.33,-295.03C917.33,-295.03 849.67,-295.03 849.67,-295.03 845.83,-295.03 842,-291.19 842,-287.36 842,-287.36 842,-279.69 842,-279.69 842,-275.86 845.83,-272.03 849.67,-272.03 849.67,-272.03 917.33,-272.03 917.33,-272.03 921.17,-272.03 925,-275.86 925,-279.69 925,-279.69 925,-287.36 925,-287.36 925,-291.19 921.17,-295.03 917.33,-295.03"/>
<text text-anchor="middle" x="883.5" y="-279.83" font-family="Arial" font-size="14.00" fill="#c6c5fe">minimap.ts</text>
</g>
<!-- arena.ts&#45;&gt;minimap.ts -->
<g id="edge3" class="edge">
<title>arena.ts&#45;&gt;minimap.ts</title>
<path fill="none" stroke="#757575" d="M494.53,-388.96C566.73,-369.34 744.54,-321.02 832.11,-297.22"/>
<polygon fill="#757575" stroke="#757575" points="833.09,-300.58 841.82,-294.58 831.25,-293.83 833.09,-300.58"/>
</g>
<!-- vector.ts -->
<g id="node5" class="node">
<title>vector.ts</title>
<path fill="none" stroke="#cfffac" d="M1020.33,-527.03C1020.33,-527.03 968.67,-527.03 968.67,-527.03 964.83,-527.03 961,-523.19 961,-519.36 961,-519.36 961,-511.69 961,-511.69 961,-507.86 964.83,-504.03 968.67,-504.03 968.67,-504.03 1020.33,-504.03 1020.33,-504.03 1024.17,-504.03 1028,-507.86 1028,-511.69 1028,-511.69 1028,-519.36 1028,-519.36 1028,-523.19 1024.17,-527.03 1020.33,-527.03"/>
<text text-anchor="middle" x="994.5" y="-511.83" font-family="Arial" font-size="14.00" fill="#cfffac">vector.ts</text>
</g>
<!-- arena.ts&#45;&gt;vector.ts -->
<g id="edge4" class="edge">
<title>arena.ts&#45;&gt;vector.ts</title>
<path fill="none" stroke="#757575" d="M494.6,-404.56C585.48,-424.77 847.65,-483.09 950.94,-506.06"/>
<polygon fill="#757575" stroke="#757575" points="950.2,-509.48 960.72,-508.24 951.72,-502.65 950.2,-509.48"/>
</g>
<!-- arena_scaling.ts&#45;&gt;vector.ts -->
<g id="edge7" class="edge">
<title>arena_scaling.ts&#45;&gt;vector.ts</title>
<path fill="none" stroke="#757575" d="M654.55,-524.15C671.49,-529.02 692.07,-534.11 711,-536.53 805.4,-548.57 830.64,-541.88 925,-529.53 933.48,-528.42 942.48,-526.86 951.07,-525.18"/>
<polygon fill="#757575" stroke="#757575" points="951.81,-528.6 960.91,-523.18 950.41,-521.74 951.81,-528.6"/>
</g>
<!-- camera.ts -->
<g id="node6" class="node">
<title>camera.ts</title>
<path fill="none" stroke="#ff6c60" d="M789.33,-409.03C789.33,-409.03 727.67,-409.03 727.67,-409.03 723.83,-409.03 720,-405.19 720,-401.36 720,-401.36 720,-393.69 720,-393.69 720,-389.86 723.83,-386.03 727.67,-386.03 727.67,-386.03 789.33,-386.03 789.33,-386.03 793.17,-386.03 797,-389.86 797,-393.69 797,-393.69 797,-401.36 797,-401.36 797,-405.19 793.17,-409.03 789.33,-409.03"/>
<text text-anchor="middle" x="758.5" y="-393.83" font-family="Arial" font-size="14.00" fill="#ff6c60">camera.ts</text>
</g>
<!-- arena_scaling.ts&#45;&gt;camera.ts -->
<g id="edge5" class="edge">
<title>arena_scaling.ts&#45;&gt;camera.ts</title>
<path fill="none" stroke="#757575" d="M632.59,-500.87C656.84,-480.81 706.62,-439.62 735.48,-415.75"/>
<polygon fill="#757575" stroke="#757575" points="737.9,-418.29 743.37,-409.22 733.43,-412.9 737.9,-418.29"/>
</g>
<!-- canvas_kit.ts -->
<g id="node7" class="node">
<title>canvas_kit.ts</title>
<path fill="none" stroke="#cfffac" d="M1160.33,-564.03C1160.33,-564.03 1080.67,-564.03 1080.67,-564.03 1076.83,-564.03 1073,-560.19 1073,-556.36 1073,-556.36 1073,-548.69 1073,-548.69 1073,-544.86 1076.83,-541.03 1080.67,-541.03 1080.67,-541.03 1160.33,-541.03 1160.33,-541.03 1164.17,-541.03 1168,-544.86 1168,-548.69 1168,-548.69 1168,-556.36 1168,-556.36 1168,-560.19 1164.17,-564.03 1160.33,-564.03"/>
<text text-anchor="middle" x="1120.5" y="-548.83" font-family="Arial" font-size="14.00" fill="#cfffac">canvas_kit.ts</text>
</g>
<!-- arena_scaling.ts&#45;&gt;canvas_kit.ts -->
<g id="edge6" class="edge">
<title>arena_scaling.ts&#45;&gt;canvas_kit.ts</title>
<path fill="none" stroke="#757575" d="M638.25,-524.2C656.44,-534.23 684.54,-547.93 711,-553.53 834.17,-579.6 982.96,-569.03 1062.6,-560.1"/>
<polygon fill="#757575" stroke="#757575" points="1063.37,-563.54 1072.9,-558.91 1062.57,-556.58 1063.37,-563.54"/>
</g>
<!-- game.ts&#45;&gt;canvas_kit.ts -->
<g id="edge18" class="edge">
<title>game.ts&#45;&gt;canvas_kit.ts</title>
<path fill="none" stroke="#757575" d="M999.49,-198.29C1017.23,-250.67 1089.21,-463.11 1112.32,-531.33"/>
<polygon fill="#757575" stroke="#757575" points="1109.07,-532.64 1115.59,-540.99 1115.7,-530.4 1109.07,-532.64"/>
</g>
<!-- event_emitter.ts -->
<g id="node12" class="node">
<title>event_emitter.ts</title>
<path fill="none" stroke="#cfffac" d="M1169.33,-122.03C1169.33,-122.03 1071.67,-122.03 1071.67,-122.03 1067.83,-122.03 1064,-118.19 1064,-114.36 1064,-114.36 1064,-106.69 1064,-106.69 1064,-102.86 1067.83,-99.03 1071.67,-99.03 1071.67,-99.03 1169.33,-99.03 1169.33,-99.03 1173.17,-99.03 1177,-102.86 1177,-106.69 1177,-106.69 1177,-114.36 1177,-114.36 1177,-118.19 1173.17,-122.03 1169.33,-122.03"/>
<text text-anchor="middle" x="1120.5" y="-106.83" font-family="Arial" font-size="14.00" fill="#cfffac">event_emitter.ts</text>
</g>
<!-- game.ts&#45;&gt;event_emitter.ts -->
<g id="edge19" class="edge">
<title>game.ts&#45;&gt;event_emitter.ts</title>
<path fill="none" stroke="#757575" d="M1014.33,-174.99C1034.91,-162.37 1068.07,-142.05 1091.66,-127.59"/>
<polygon fill="#757575" stroke="#757575" points="1093.79,-130.39 1100.49,-122.18 1090.13,-124.42 1093.79,-130.39"/>
</g>
<!-- minimap.ts&#45;&gt;game.ts -->
<g id="edge30" class="edge">
<title>minimap.ts&#45;&gt;game.ts</title>
<path fill="none" stroke="#757575" d="M897.43,-272.02C916.01,-255.48 950.47,-224.82 972.67,-205.06"/>
<polygon fill="#757575" stroke="#757575" points="975.1,-207.59 980.25,-198.32 970.45,-202.36 975.1,-207.59"/>
</g>
<!-- minimap.ts&#45;&gt;vector.ts -->
<g id="edge31" class="edge">
<title>minimap.ts&#45;&gt;vector.ts</title>
<path fill="none" stroke="#757575" d="M892.93,-295.42C901.62,-307.99 915.25,-328.59 925,-347.53 951.18,-398.35 974.67,-461.54 986.12,-494.03"/>
<polygon fill="#757575" stroke="#757575" points="982.93,-495.52 989.53,-503.81 989.54,-493.21 982.93,-495.52"/>
</g>
<!-- minimap.ts&#45;&gt;canvas_kit.ts -->
<g id="edge29" class="edge">
<title>minimap.ts&#45;&gt;canvas_kit.ts</title>
<path fill="none" stroke="#757575" d="M894.6,-295.09C931.21,-336.99 1057.2,-481.21 1102.83,-533.45"/>
<polygon fill="#757575" stroke="#757575" points="1100.22,-535.78 1109.44,-541.01 1105.5,-531.18 1100.22,-535.78"/>
</g>
<!-- camera.ts&#45;&gt;arena.ts -->
<g id="edge8" class="edge">
<title>camera.ts&#45;&gt;arena.ts</title>
<path fill="none" stroke="#757575" d="M719.75,-397.53C664.53,-397.53 562.06,-397.53 504.68,-397.53"/>
<polygon fill="#757575" stroke="#757575" points="504.52,-394.03 494.52,-397.53 504.52,-401.03 504.52,-394.03"/>
</g>
<!-- camera.ts&#45;&gt;minimap.ts -->
<g id="edge9" class="edge">
<title>camera.ts&#45;&gt;minimap.ts</title>
<path fill="none" stroke="#757575" d="M768.85,-385.83C783.37,-368.1 812.71,-333.91 842,-309.53 845.74,-306.42 849.87,-303.38 854.02,-300.54"/>
<polygon fill="#757575" stroke="#757575" points="856,-303.43 862.45,-295.03 852.17,-297.57 856,-303.43"/>
</g>
<!-- camera.ts&#45;&gt;vector.ts -->
<g id="edge10" class="edge">
<title>camera.ts&#45;&gt;vector.ts</title>
<path fill="none" stroke="#757575" d="M797.07,-395.59C832.52,-395.49 885.91,-399.92 925,-423.53 952.94,-440.4 973.18,-473.38 984.13,-494.92"/>
<polygon fill="#757575" stroke="#757575" points="980.98,-496.45 988.5,-503.92 987.28,-493.4 980.98,-496.45"/>
</g>
<!-- diep_gamepad.ts -->
<g id="node8" class="node">
<title>diep_gamepad.ts</title>
<path fill="none" stroke="#cfffac" d="M346.83,-489.03C346.83,-489.03 241.17,-489.03 241.17,-489.03 237.33,-489.03 233.5,-485.19 233.5,-481.36 233.5,-481.36 233.5,-473.69 233.5,-473.69 233.5,-469.86 237.33,-466.03 241.17,-466.03 241.17,-466.03 346.83,-466.03 346.83,-466.03 350.67,-466.03 354.5,-469.86 354.5,-473.69 354.5,-473.69 354.5,-481.36 354.5,-481.36 354.5,-485.19 350.67,-489.03 346.83,-489.03"/>
<text text-anchor="middle" x="294" y="-473.83" font-family="Arial" font-size="14.00" fill="#cfffac">diep_gamepad.ts</text>
</g>
<!-- entity.ts -->
<g id="node9" class="node">
<title>entity.ts</title>
<path fill="none" stroke="#c6c5fe" d="M640.83,-607.03C640.83,-607.03 594.17,-607.03 594.17,-607.03 590.33,-607.03 586.5,-603.19 586.5,-599.36 586.5,-599.36 586.5,-591.69 586.5,-591.69 586.5,-587.86 590.33,-584.03 594.17,-584.03 594.17,-584.03 640.83,-584.03 640.83,-584.03 644.67,-584.03 648.5,-587.86 648.5,-591.69 648.5,-591.69 648.5,-599.36 648.5,-599.36 648.5,-603.19 644.67,-607.03 640.83,-607.03"/>
<text text-anchor="middle" x="617.5" y="-591.83" font-family="Arial" font-size="14.00" fill="#c6c5fe">entity.ts</text>
</g>
<!-- entity.ts&#45;&gt;vector.ts -->
<g id="edge12" class="edge">
<title>entity.ts&#45;&gt;vector.ts</title>
<path fill="none" stroke="#757575" d="M648.75,-593.86C704.51,-590.15 826.79,-578.97 925,-548.53 938.43,-544.36 952.55,-537.95 964.45,-531.88"/>
<polygon fill="#757575" stroke="#757575" points="966.24,-534.89 973.46,-527.14 962.99,-528.7 966.24,-534.89"/>
</g>
<!-- movement.ts -->
<g id="node10" class="node">
<title>movement.ts</title>
<path fill="none" stroke="#c6c5fe" d="M798.33,-527.03C798.33,-527.03 718.67,-527.03 718.67,-527.03 714.83,-527.03 711,-523.19 711,-519.36 711,-519.36 711,-511.69 711,-511.69 711,-507.86 714.83,-504.03 718.67,-504.03 718.67,-504.03 798.33,-504.03 798.33,-504.03 802.17,-504.03 806,-507.86 806,-511.69 806,-511.69 806,-519.36 806,-519.36 806,-523.19 802.17,-527.03 798.33,-527.03"/>
<text text-anchor="middle" x="758.5" y="-511.83" font-family="Arial" font-size="14.00" fill="#c6c5fe">movement.ts</text>
</g>
<!-- entity.ts&#45;&gt;movement.ts -->
<g id="edge11" class="edge">
<title>entity.ts&#45;&gt;movement.ts</title>
<path fill="none" stroke="#757575" d="M642.09,-583.95C652.3,-578.8 664.34,-572.54 675,-566.53 694,-555.8 714.9,-542.87 730.91,-532.71"/>
<polygon fill="#757575" stroke="#757575" points="733.17,-535.42 739.72,-527.09 729.41,-529.52 733.17,-535.42"/>
</g>
<!-- movement.ts&#45;&gt;vector.ts -->
<g id="edge32" class="edge">
<title>movement.ts&#45;&gt;vector.ts</title>
<path fill="none" stroke="#757575" d="M806.01,-515.53C848.19,-515.53 909.85,-515.53 950.8,-515.53"/>
<polygon fill="#757575" stroke="#757575" points="951,-519.03 961,-515.53 951,-512.03 951,-519.03"/>
</g>
<!-- entity_manager.ts -->
<g id="node11" class="node">
<title>entity_manager.ts</title>
<path fill="none" stroke="#c6c5fe" d="M516.33,-607.03C516.33,-607.03 407.67,-607.03 407.67,-607.03 403.83,-607.03 400,-603.19 400,-599.36 400,-599.36 400,-591.69 400,-591.69 400,-587.86 403.83,-584.03 407.67,-584.03 407.67,-584.03 516.33,-584.03 516.33,-584.03 520.17,-584.03 524,-587.86 524,-591.69 524,-591.69 524,-599.36 524,-599.36 524,-603.19 520.17,-607.03 516.33,-607.03"/>
<text text-anchor="middle" x="462" y="-591.83" font-family="Arial" font-size="14.00" fill="#c6c5fe">entity_manager.ts</text>
</g>
<!-- entity_manager.ts&#45;&gt;arena_scaling.ts -->
<g id="edge13" class="edge">
<title>entity_manager.ts&#45;&gt;arena_scaling.ts</title>
<path fill="none" stroke="#757575" d="M495.27,-583.95C504.83,-579.95 515.11,-575.07 524,-569.53 541.92,-558.37 542.24,-549.94 560,-538.53 565.54,-534.97 571.66,-531.62 577.75,-528.6"/>
<polygon fill="#757575" stroke="#757575" points="579.68,-531.56 587.23,-524.12 576.69,-525.23 579.68,-531.56"/>
</g>
<!-- entity_manager.ts&#45;&gt;game.ts -->
<g id="edge16" class="edge">
<title>entity_manager.ts&#45;&gt;game.ts</title>
<path fill="none" stroke="#757575" d="M513.6,-583.96C567.25,-571.14 647.92,-550.07 675,-533.53 694.85,-521.4 693.93,-511.33 711,-495.53 750.89,-458.61 765.23,-454.47 806,-418.53 860.94,-370.09 879.72,-362.1 925,-304.53 949.71,-273.11 971.61,-231.84 983.66,-207.36"/>
<polygon fill="#757575" stroke="#757575" points="986.86,-208.79 988.07,-198.26 980.56,-205.74 986.86,-208.79"/>
</g>
<!-- entity_manager.ts&#45;&gt;vector.ts -->
<g id="edge17" class="edge">
<title>entity_manager.ts&#45;&gt;vector.ts</title>
<path fill="none" stroke="#757575" d="M506.62,-607.04C523.2,-610.87 542.35,-614.64 560,-616.53 722.47,-633.91 777.62,-643.09 925,-572.53 944.41,-563.23 962.96,-547.21 975.84,-534.51"/>
<polygon fill="#757575" stroke="#757575" points="978.59,-536.71 983.09,-527.12 973.59,-531.81 978.59,-536.71"/>
</g>
<!-- entity_manager.ts&#45;&gt;canvas_kit.ts -->
<g id="edge14" class="edge">
<title>entity_manager.ts&#45;&gt;canvas_kit.ts</title>
<path fill="none" stroke="#757575" d="M473.49,-607.14C509.18,-645.33 630.76,-764.53 757.5,-764.53 757.5,-764.53 757.5,-764.53 884.5,-764.53 998.04,-764.53 1081.4,-626.4 1109.32,-573.13"/>
<polygon fill="#757575" stroke="#757575" points="1112.44,-574.72 1113.89,-564.23 1106.21,-571.53 1112.44,-574.72"/>
</g>
<!-- entity_manager.ts&#45;&gt;entity.ts -->
<g id="edge15" class="edge">
<title>entity_manager.ts&#45;&gt;entity.ts</title>
<path fill="none" stroke="#757575" d="M524.11,-595.53C541.67,-595.53 560.36,-595.53 576.31,-595.53"/>
<polygon fill="#757575" stroke="#757575" points="576.36,-599.03 586.36,-595.53 576.36,-592.03 576.36,-599.03"/>
</g>
<!-- globals.d.ts -->
<g id="node13" class="node">
<title>globals.d.ts</title>
<path fill="none" stroke="#cfffac" d="M77.33,-570.03C77.33,-570.03 7.67,-570.03 7.67,-570.03 3.83,-570.03 0,-566.19 0,-562.36 0,-562.36 0,-554.69 0,-554.69 0,-550.86 3.83,-547.03 7.67,-547.03 7.67,-547.03 77.33,-547.03 77.33,-547.03 81.17,-547.03 85,-550.86 85,-554.69 85,-554.69 85,-562.36 85,-562.36 85,-566.19 81.17,-570.03 77.33,-570.03"/>
<text text-anchor="middle" x="42.5" y="-554.83" font-family="Arial" font-size="14.00" fill="#cfffac">globals.d.ts</text>
</g>
<!-- index.ts -->
<g id="node14" class="node">
<title>index.ts</title>
<path fill="none" stroke="#c6c5fe" d="M66.33,-529.03C66.33,-529.03 18.67,-529.03 18.67,-529.03 14.83,-529.03 11,-525.19 11,-521.36 11,-521.36 11,-513.69 11,-513.69 11,-509.86 14.83,-506.03 18.67,-506.03 18.67,-506.03 66.33,-506.03 66.33,-506.03 70.17,-506.03 74,-509.86 74,-513.69 74,-513.69 74,-521.36 74,-521.36 74,-525.19 70.17,-529.03 66.33,-529.03"/>
<text text-anchor="middle" x="42.5" y="-513.83" font-family="Arial" font-size="14.00" fill="#c6c5fe">index.ts</text>
</g>
<!-- index.ts&#45;&gt;arena.ts -->
<g id="edge20" class="edge">
<title>index.ts&#45;&gt;arena.ts</title>
<path fill="none" stroke="#757575" d="M74.43,-522.83C133.76,-531.52 266.32,-543.61 364,-498.53 401.78,-481.09 432.39,-441.83 448.54,-417.72"/>
<polygon fill="#757575" stroke="#757575" points="451.5,-419.59 454.01,-409.3 445.63,-415.78 451.5,-419.59"/>
</g>
<!-- index.ts&#45;&gt;arena_scaling.ts -->
<g id="edge21" class="edge">
<title>index.ts&#45;&gt;arena_scaling.ts</title>
<path fill="none" stroke="#757575" d="M73.56,-529.14C87.72,-534.02 104.98,-539.1 121,-541.53 150.44,-545.98 158.24,-542.53 188,-541.53 316.05,-537.2 465.26,-525.62 549.53,-518.47"/>
<polygon fill="#757575" stroke="#757575" points="550.06,-521.93 559.73,-517.6 549.46,-514.96 550.06,-521.93"/>
</g>
<!-- index.ts&#45;&gt;game.ts -->
<g id="edge25" class="edge">
<title>index.ts&#45;&gt;game.ts</title>
<path fill="none" stroke="#757575" d="M45.62,-506C52.07,-473.42 73.97,-378.96 121,-316.53 214.55,-192.35 252.61,-154.99 400,-105.53 571.39,-48.02 627.41,-102.45 806,-130.53 859.13,-138.88 873.98,-135.52 925,-152.53 938.52,-157.03 952.74,-163.74 964.7,-170"/>
<polygon fill="#757575" stroke="#757575" points="963.29,-173.22 973.75,-174.88 966.61,-167.06 963.29,-173.22"/>
</g>
<!-- index.ts&#45;&gt;minimap.ts -->
<g id="edge26" class="edge">
<title>index.ts&#45;&gt;minimap.ts</title>
<path fill="none" stroke="#757575" d="M45.3,-505.84C50.62,-475.58 69.29,-394.53 121,-357.53 343.18,-198.55 699.9,-247.26 831.55,-272.55"/>
<polygon fill="#757575" stroke="#757575" points="831.26,-276.06 841.75,-274.55 832.61,-269.19 831.26,-276.06"/>
</g>
<!-- index.ts&#45;&gt;vector.ts -->
<g id="edge28" class="edge">
<title>index.ts&#45;&gt;vector.ts</title>
<path fill="none" stroke="#757575" d="M71.56,-529.22C76.32,-531.88 81.01,-534.99 85,-538.53 106.58,-557.67 100.62,-572.12 121,-592.53 185.98,-657.59 201.04,-707.53 293,-707.53 293,-707.53 293,-707.53 618.5,-707.53 762.35,-707.53 807.78,-686.9 925,-603.53 950.08,-585.69 970.43,-556.07 982.25,-536.18"/>
<polygon fill="#757575" stroke="#757575" points="985.41,-537.7 987.35,-527.29 979.34,-534.22 985.41,-537.7"/>
</g>
<!-- index.ts&#45;&gt;canvas_kit.ts -->
<g id="edge22" class="edge">
<title>index.ts&#45;&gt;canvas_kit.ts</title>
<path fill="none" stroke="#757575" d="M73.62,-529.2C77.83,-531.79 81.81,-534.88 85,-538.53 116.95,-575.01 94.53,-600.89 121,-641.53 178.15,-729.27 188.29,-802.53 293,-802.53 293,-802.53 293,-802.53 884.5,-802.53 956.06,-802.53 977.24,-779.96 1028,-729.53 1073.81,-684.01 1101.47,-610.75 1113.08,-574.42"/>
<polygon fill="#757575" stroke="#757575" points="1116.57,-574.99 1116.18,-564.4 1109.88,-572.92 1116.57,-574.99"/>
</g>
<!-- index.ts&#45;&gt;diep_gamepad.ts -->
<g id="edge23" class="edge">
<title>index.ts&#45;&gt;diep_gamepad.ts</title>
<path fill="none" stroke="#757575" d="M74.02,-511.81C88.27,-509.19 105.49,-506.1 121,-503.53 154.6,-497.95 191.99,-492.24 223.29,-487.6"/>
<polygon fill="#757575" stroke="#757575" points="223.85,-491.06 233.23,-486.13 222.83,-484.13 223.85,-491.06"/>
</g>
<!-- index.ts&#45;&gt;entity_manager.ts -->
<g id="edge24" class="edge">
<title>index.ts&#45;&gt;entity_manager.ts</title>
<path fill="none" stroke="#757575" d="M69.07,-529.24C74.47,-532.05 80.03,-535.2 85,-538.53 102.55,-550.27 101.5,-561.43 121,-569.53 208.15,-605.72 318.6,-606.92 389.54,-602.67"/>
<polygon fill="#757575" stroke="#757575" points="389.96,-606.15 399.71,-602.01 389.51,-599.17 389.96,-606.15"/>
</g>
<!-- player.ts -->
<g id="node15" class="node">
<title>player.ts</title>
<path fill="none" stroke="#c6c5fe" d="M180.33,-389.03C180.33,-389.03 128.67,-389.03 128.67,-389.03 124.83,-389.03 121,-385.19 121,-381.36 121,-381.36 121,-373.69 121,-373.69 121,-369.86 124.83,-366.03 128.67,-366.03 128.67,-366.03 180.33,-366.03 180.33,-366.03 184.17,-366.03 188,-369.86 188,-373.69 188,-373.69 188,-381.36 188,-381.36 188,-385.19 184.17,-389.03 180.33,-389.03"/>
<text text-anchor="middle" x="154.5" y="-373.83" font-family="Arial" font-size="14.00" fill="#c6c5fe">player.ts</text>
</g>
<!-- index.ts&#45;&gt;player.ts -->
<g id="edge27" class="edge">
<title>index.ts&#45;&gt;player.ts</title>
<path fill="none" stroke="#757575" d="M52.88,-505.59C71.89,-481.4 115.11,-426.38 138.24,-396.95"/>
<polygon fill="#757575" stroke="#757575" points="141.03,-399.07 144.45,-389.04 135.52,-394.74 141.03,-399.07"/>
</g>
<!-- player.ts&#45;&gt;arena_scaling.ts -->
<g id="edge33" class="edge">
<title>player.ts&#45;&gt;arena_scaling.ts</title>
<path fill="none" stroke="#757575" d="M171.65,-389.13C185.08,-398.29 205.01,-410.78 224,-418.53 254.49,-430.96 451.86,-475.82 554.57,-498.78"/>
<polygon fill="#757575" stroke="#757575" points="553.98,-502.24 564.51,-501 555.51,-495.41 553.98,-502.24"/>
</g>
<!-- player.ts&#45;&gt;game.ts -->
<g id="edge37" class="edge">
<title>player.ts&#45;&gt;game.ts</title>
<path fill="none" stroke="#757575" d="M155.25,-365.91C155.13,-328.84 160.08,-212.29 224,-153.53 330.59,-55.55 807.47,-146.95 951.91,-177.44"/>
<polygon fill="#757575" stroke="#757575" points="951.22,-180.87 961.73,-179.53 952.67,-174.02 951.22,-180.87"/>
</g>
<!-- player.ts&#45;&gt;vector.ts -->
<g id="edge39" class="edge">
<title>player.ts&#45;&gt;vector.ts</title>
<path fill="none" stroke="#757575" d="M188.01,-374C243.78,-368.26 361.34,-357.53 461,-357.53 461,-357.53 461,-357.53 618.5,-357.53 755.66,-357.53 811.52,-316.49 925,-393.53 960.28,-417.48 979.39,-465.96 987.91,-494.06"/>
<polygon fill="#757575" stroke="#757575" points="984.56,-495.08 990.67,-503.74 991.3,-493.16 984.56,-495.08"/>
</g>
<!-- player.ts&#45;&gt;canvas_kit.ts -->
<g id="edge34" class="edge">
<title>player.ts&#45;&gt;canvas_kit.ts</title>
<path fill="none" stroke="#757575" d="M170.17,-365.92C260.34,-296.04 744.99,58.37 1028,-165.53 1086.58,-211.87 1111.5,-456.38 1117.81,-530.93"/>
<polygon fill="#757575" stroke="#757575" points="1114.34,-531.34 1118.64,-541.02 1121.31,-530.77 1114.34,-531.34"/>
</g>
<!-- player.ts&#45;&gt;diep_gamepad.ts -->
<g id="edge35" class="edge">
<title>player.ts&#45;&gt;diep_gamepad.ts</title>
<path fill="none" stroke="#757575" d="M163.5,-389.11C175.13,-405.15 198.14,-434.13 224,-451.53 229.99,-455.56 236.68,-459.07 243.49,-462.1"/>
<polygon fill="#757575" stroke="#757575" points="242.2,-465.36 252.77,-465.94 244.87,-458.89 242.2,-465.36"/>
</g>
<!-- player.ts&#45;&gt;event_emitter.ts -->
<g id="edge36" class="edge">
<title>player.ts&#45;&gt;event_emitter.ts</title>
<path fill="none" stroke="#757575" d="M156.8,-365.85C162.27,-318.89 184.93,-144.71 224,-108.53 400.6,55.01 516.81,-15.53 757.5,-15.53 757.5,-15.53 757.5,-15.53 884.5,-15.53 966.5,-15.53 1053.62,-65.85 1094.98,-93.25"/>
<polygon fill="#757575" stroke="#757575" points="1093.07,-96.19 1103.32,-98.88 1096.99,-90.38 1093.07,-96.19"/>
</g>
<!-- player_movement.ts -->
<g id="node16" class="node">
<title>player_movement.ts</title>
<path fill="none" stroke="#c6c5fe" d="M356.33,-409.03C356.33,-409.03 231.67,-409.03 231.67,-409.03 227.83,-409.03 224,-405.19 224,-401.36 224,-401.36 224,-393.69 224,-393.69 224,-389.86 227.83,-386.03 231.67,-386.03 231.67,-386.03 356.33,-386.03 356.33,-386.03 360.17,-386.03 364,-389.86 364,-393.69 364,-393.69 364,-401.36 364,-401.36 364,-405.19 360.17,-409.03 356.33,-409.03"/>
<text text-anchor="middle" x="294" y="-393.83" font-family="Arial" font-size="14.00" fill="#c6c5fe">player_movement.ts</text>
</g>
<!-- player.ts&#45;&gt;player_movement.ts -->
<g id="edge38" class="edge">
<title>player.ts&#45;&gt;player_movement.ts</title>
<path fill="none" stroke="#757575" d="M188.09,-382.27C196.02,-383.42 204.85,-384.71 213.92,-386.03"/>
<polygon fill="#757575" stroke="#757575" points="213.43,-389.49 223.83,-387.47 214.44,-382.56 213.43,-389.49"/>
</g>
<!-- player_movement.ts&#45;&gt;arena.ts -->
<g id="edge40" class="edge">
<title>player_movement.ts&#45;&gt;arena.ts</title>
<path fill="none" stroke="#757575" d="M364.44,-397.53C382.95,-397.53 402.39,-397.53 418.93,-397.53"/>
<polygon fill="#757575" stroke="#757575" points="419.34,-401.03 429.34,-397.53 419.34,-394.03 419.34,-401.03"/>
</g>
<!-- player_movement.ts&#45;&gt;game.ts -->
<g id="edge41" class="edge">
<title>player_movement.ts&#45;&gt;game.ts</title>
<path fill="none" stroke="#757575" d="M311.82,-385.96C332.03,-372.45 367.32,-350.09 400,-335.53 587.49,-251.95 640.17,-238.97 842,-201.53 878.73,-194.71 921.08,-190.85 951.65,-188.76"/>
<polygon fill="#757575" stroke="#757575" points="952.19,-192.23 961.94,-188.09 951.74,-185.25 952.19,-192.23"/>
</g>
<!-- player_movement.ts&#45;&gt;minimap.ts -->
<g id="edge42" class="edge">
<title>player_movement.ts&#45;&gt;minimap.ts</title>
<path fill="none" stroke="#757575" d="M337.18,-385.99C411.93,-365.95 572.83,-324.63 711,-301.53 751.27,-294.79 797.31,-290.13 831.54,-287.23"/>
<polygon fill="#757575" stroke="#757575" points="832.09,-290.7 841.77,-286.39 831.52,-283.72 832.09,-290.7"/>
</g>
<!-- player_movement.ts&#45;&gt;movement.ts -->
<g id="edge43" class="edge">
<title>player_movement.ts&#45;&gt;movement.ts</title>
<path fill="none" stroke="#757575" d="M342.8,-409.04C414.93,-426.51 555.84,-461.03 675,-492.53 685.35,-495.26 696.4,-498.28 706.94,-501.2"/>
<polygon fill="#757575" stroke="#757575" points="706.28,-504.65 716.86,-503.96 708.16,-497.91 706.28,-504.65"/>
</g>
</g>
</svg>
